# xmcd CD database file
# Generated: Die Okt 12 17:20:34 2004 by KSCD
# 
# Track frame offsets:
#       150
#       15537
#       27625
#       39900
#       61425
#       76012
#       101612
#       119600
#       141612
#       192550
#
# Disc length: 2900 seconds
#
# Revision: 2
# Processed by: cddbd v1.5.1PL0 Copyright (c) Steve Scherf et al.
# Submitted via: Kscd 1.3.3
#
DISCID=8a0b520a
DTITLE=Jimi Hendrix - Jimi Hendrix
DYEAR=1900
DGENRE=
TTITLE0=Hey, Joe
TTITLE1=She's A Fox
TTITLE2=Purple Haze
TTITLE3=Hey Le Roy
TTITLE4=Foxy Lady
TTITLE5=Free Spirit
TTITLE6=All Along The Watchtower
TTITLE7=Something You Got
TTITLE8=Let The God Sing
TTITLE9=House Of Rising Sun
EXTD=
EXTT0=
EXTT1=
EXTT2=
EXTT3=
EXTT4=
EXTT5=
EXTT6=
EXTT7=
EXTT8=
EXTT9=
PLAYORDER=
